/* XPM */
static const char * BotA_XPM[] = {
"10 10 2 1",
" 	c None",
".	c #000000",
"    ..    ",
"    ..    ",
"   ....   ",
"   ....   ",
"   ....   ",
"  ......  ",
"  ......  ",
" ...  ... ",
"...    ...",
".        ."};
