/* XPM */
static const char * BotB_XPM[] = {
"10 10 3 1",
" 	c None",
".	c #000000",
"+	c #FF0000",
"    ..    ",
"    ..    ",
"   ....   ",
"   .++.   ",
"   .++.   ",
"  ..++..  ",
"  .+..+.  ",
" .+.  .+. ",
".+.    .+.",
".        ."};
