/* XPM */
static const char * Go_XPM[] = {
"32 32 225 2",
"  	c None",
". 	c #000000",
"+ 	c #1E7A6B",
"@ 	c #1E7F6F",
"# 	c #045C4D",
"$ 	c #147564",
"% 	c #034C3E",
"& 	c #1A7565",
"* 	c #0F6A5E",
"= 	c #0E7061",
"- 	c #035E4F",
"; 	c #0F7563",
"> 	c #025648",
", 	c #0A695A",
"' 	c #034A3C",
") 	c #12695A",
"! 	c #0B6D5D",
"~ 	c #107466",
"{ 	c #05685A",
"] 	c #046655",
"^ 	c #086859",
"/ 	c #025244",
"( 	c #046455",
"_ 	c #0A6153",
": 	c #085748",
"< 	c #147462",
"[ 	c #0C6557",
"} 	c #0A6053",
"| 	c #045F4E",
"1 	c #025546",
"2 	c #075D4E",
"3 	c #045543",
"4 	c #076556",
"5 	c #035A4D",
"6 	c #127363",
"7 	c #146B5D",
"8 	c #093E2F",
"9 	c #025548",
"0 	c #0F6E5C",
"a 	c #065D4E",
"b 	c #004D3E",
"c 	c #146A5C",
"d 	c #034B3E",
"e 	c #036552",
"f 	c #0F7262",
"g 	c #0D5747",
"h 	c #065745",
"i 	c #147667",
"j 	c #0F5C4B",
"k 	c #0A6254",
"l 	c #126B5B",
"m 	c #0E6253",
"n 	c #046351",
"o 	c #056054",
"p 	c #0C7163",
"q 	c #0D7262",
"r 	c #065746",
"s 	c #27806F",
"t 	c #0A554A",
"u 	c #0D614F",
"v 	c #116E62",
"w 	c #086052",
"x 	c #0C6254",
"y 	c #046253",
"z 	c #187669",
"A 	c #258879",
"B 	c #045445",
"C 	c #0C5346",
"D 	c #064E41",
"E 	c #187E6B",
"F 	c #0B6355",
"G 	c #096152",
"H 	c #096958",
"I 	c #1B816F",
"J 	c #136256",
"K 	c #013D32",
"L 	c #055F4E",
"M 	c #147A6A",
"N 	c #126E5F",
"O 	c #0C6959",
"P 	c #066A59",
"Q 	c #0E6559",
"R 	c #035445",
"S 	c #075F50",
"T 	c #1C7467",
"U 	c #085D4E",
"V 	c #21877A",
"W 	c #1C7D6F",
"X 	c #096B5D",
"Y 	c #02594A",
"Z 	c #0E6557",
"` 	c #05564A",
" .	c #086050",
"..	c #015A49",
"+.	c #09695A",
"@.	c #03594B",
"#.	c #065345",
"$.	c #0B5B4D",
"%.	c #107163",
"&.	c #045F4F",
"*.	c #055949",
"=.	c #0E6457",
"-.	c #01584A",
";.	c #075B4C",
">.	c #096456",
",.	c #095D4F",
"'.	c #0C6353",
").	c #0C5C4E",
"!.	c #0A6353",
"~.	c #096351",
"{.	c #05473B",
"].	c #086152",
"^.	c #0D6C5D",
"/.	c #0C6657",
"(.	c #1C7866",
"_.	c #055F50",
":.	c #1E7D6D",
"<.	c #055848",
"[.	c #095A4C",
"}.	c #09685B",
"|.	c #056051",
"1.	c #04594C",
"2.	c #0F6F5F",
"3.	c #0E7161",
"4.	c #187A6C",
"5.	c #0F6655",
"6.	c #0C594A",
"7.	c #055A4B",
"8.	c #0D7261",
"9.	c #075D4C",
"0.	c #0E7162",
"a.	c #0D6657",
"b.	c #095A4B",
"c.	c #03463A",
"d.	c #147262",
"e.	c #034C3F",
"f.	c #208374",
"g.	c #0A6557",
"h.	c #0E6556",
"i.	c #086A5A",
"j.	c #137265",
"k.	c #177666",
"l.	c #0B705D",
"m.	c #1F7F70",
"n.	c #137768",
"o.	c #056152",
"p.	c #076051",
"q.	c #05695A",
"r.	c #107668",
"s.	c #137B6B",
"t.	c #0D6A5D",
"u.	c #107063",
"v.	c #0E7163",
"w.	c #0F7162",
"x.	c #095F50",
"y.	c #056151",
"z.	c #14756A",
"A.	c #107060",
"B.	c #015B4A",
"C.	c #046151",
"D.	c #025F4F",
"E.	c #066050",
"F.	c #03493A",
"G.	c #28201A",
"H.	c #0B6D5F",
"I.	c #0C6758",
"J.	c #065C4C",
"K.	c #0C705D",
"L.	c #096756",
"M.	c #045647",
"N.	c #04473A",
"O.	c #046554",
"P.	c #015F51",
"Q.	c #066A5A",
"R.	c #197B6D",
"S.	c #0A5E4F",
"T.	c #0B705C",
"U.	c #08594D",
"V.	c #044F43",
"W.	c #066554",
"X.	c #026656",
"Y.	c #056A5A",
"Z.	c #065D50",
"`.	c #0B5D4E",
" +	c #0B5A4C",
".+	c #0B5E4F",
"++	c #035748",
"@+	c #056154",
"#+	c #036052",
"$+	c #096B5B",
"%+	c #177C6D",
"&+	c #187A69",
"*+	c #0C584A",
"=+	c #045344",
"-+	c #278776",
";+	c #1D8474",
">+	c #24877A",
",+	c #1C8271",
"'+	c #0B6455",
")+	c #086758",
"!+	c #127061",
"~+	c #086453",
"{+	c #035749",
"]+	c #025B4D",
"^+	c #065D4F",
"/+	c #02564A",
"(+	c #076454",
"_+	c #085C4D",
":+	c #0C5E51",
"<+	c #044B3E",
"[+	c #0C5F4F",
"}+	c #167465",
"|+	c #0B695A",
"1+	c #076758",
"2+	c #157768",
"3+	c #056153",
"4+	c #075E4F",
"5+	c #0D6E5E",
"6+	c #035545",
"7+	c #0C5D4D",
"8+	c #248B7A",
"9+	c #1C7969",
"0+	c #056352",
"a+	c #086A5B",
"b+	c #177B6C",
"                                    . . . .                     ",
"                                . . + @ # $ .                   ",
"                            . . % & * = - ; > .                 ",
"                          . , ' ) ! ~ { ] ^ / .                 ",
"                        . ( _ : < [ } | 1 2 . 3                 ",
"                      . 4 5 6 7 8 9 0 a b c .                   ",
"                      . d e f g h i j k l . m                   ",
"                    . n o p q r s t u v w .                     ",
"                    . x y z A B C D E ( . F                     ",
"                    . G H I J K L M . . N                       ",
"                    2 . O P Q R . . S T                         ",
"              . .     U . . . . V W                             ",
"            . X Y .     Z `  ...                                ",
"          . +.@.#.$..                           . .             ",
"          . %.&.*.=.-..                     . . ;.>..           ",
"          . ,.'.).!.~..                 . . {.].^./.(..         ",
"          _.. :.<.[.. }.              . |.1.2.3.4.5.6..         ",
"            7.. . . 8.              . 9.0.a.b.c.d.e.b..         ",
"              f.g.h.                . i.j.k.l.m.n.o.p..         ",
"                                  . q.r.s.t.u.v.w.x.. y.        ",
"                                  . z.A.B.C.o.D.E.F..           ",
"                                . G.H.I.J.K.L.M.N.. O.          ",
"                                . P.Q.R.S.T.U.V.W..             ",
"                                . X.Y.Z.p.`. +.+. ++            ",
"                                . @+#+$+%+&+*+. =+              ",
"                        . .     -+. ;+>+,+. . '+                ",
"                      . )+!+.     ~+. . . {+]+                  ",
"                    . ^+/+(+G .     _+:+<+                      ",
"                    . [+}+|+1+2+.                               ",
"                    . +.3+(+4+5+.                               ",
"                    6+. . . . . 7+                              ",
"                      8+9+0+a+b+                                "};
