/* XPM */
static const char * Lab_XPM[] = {
"49 59 144 2",
"  	c None",
". 	c #E9EEF8",
"+ 	c #C5CFE1",
"@ 	c #C1CCDF",
"# 	c #D3DCEA",
"$ 	c #DAE2EF",
"% 	c #E2E7F2",
"& 	c #BDC9DD",
"* 	c #B9C6DB",
"= 	c #B7C3D6",
"- 	c #B3C0D8",
"; 	c #D8DFEC",
"> 	c #CCD7E7",
", 	c #A6B1C8",
"' 	c #878B9A",
") 	c #A8A9B3",
"! 	c #F2F2F5",
"~ 	c #F5F6F9",
"{ 	c #E6EAF3",
"] 	c #DDE4F0",
"^ 	c #CED8E7",
"/ 	c #CCD6E5",
"( 	c #D0D9E8",
"_ 	c #D1DAE9",
": 	c #D4DBEA",
"< 	c #E0E5F0",
"[ 	c #A1ACC2",
"} 	c #ABBAD3",
"| 	c #D8DFED",
"1 	c #F8F8F9",
"2 	c #FFFFFE",
"3 	c #FFFFFF",
"4 	c #FBFBFB",
"5 	c #E6EDFA",
"6 	c #E8EDF7",
"7 	c #E2E8F3",
"8 	c #787E90",
"9 	c #C6C6CB",
"0 	c #CAD4E5",
"a 	c #EEF0F6",
"b 	c #B3BCD0",
"c 	c #9BA4B9",
"d 	c #929BB2",
"e 	c #8C94A7",
"f 	c #747682",
"g 	c #DFDFE7",
"h 	c #ECEDF2",
"i 	c #AFB2C1",
"j 	c #C7CAD7",
"k 	c #CBD2E0",
"l 	c #C8D2E4",
"m 	c #CBD4E4",
"n 	c #D8D9DD",
"o 	c #FAFAFB",
"p 	c #D5DDEB",
"q 	c #8087A4",
"r 	c #636A85",
"s 	c #92949C",
"t 	c #BABCC8",
"u 	c #DDE2EB",
"v 	c #CED6E2",
"w 	c #606576",
"x 	c #D7DDE8",
"y 	c #CED0DB",
"z 	c #D4DEEE",
"A 	c #BFC0D3",
"B 	c #DEDFE1",
"C 	c #F2F2F9",
"D 	c #FDFCFD",
"E 	c #A5AED1",
"F 	c #95A2C9",
"G 	c #C9D3E3",
"H 	c #151420",
"I 	c #2A2D36",
"J 	c #F8F9FC",
"K 	c #FEFEFD",
"L 	c #020202",
"M 	c #545765",
"N 	c #FEFDFC",
"O 	c #D2DAE7",
"P 	c #9B9EA8",
"Q 	c #3D4353",
"R 	c #494B52",
"S 	c #7F7D7F",
"T 	c #60606A",
"U 	c #3D3D40",
"V 	c #6B7084",
"W 	c #737279",
"X 	c #D3D7E5",
"Y 	c #292A47",
"Z 	c #1E1C34",
"` 	c #E6E6EB",
" .	c #2C2E57",
"..	c #2F3162",
"+.	c #2F326D",
"@.	c #2A2A6F",
"#.	c #3A3D76",
"$.	c #2E3274",
"%.	c #313275",
"&.	c #6B6A9A",
"*.	c #5B5A91",
"=.	c #313175",
"-.	c #322F74",
";.	c #323175",
">.	c #2D2C71",
",.	c #8E887F",
"'.	c #313679",
").	c #27256D",
"!.	c #8F8DB3",
"~.	c #333075",
"{.	c #302E73",
"].	c #CCABB9",
"^.	c #7776A4",
"/.	c #3C397B",
"(.	c #323276",
"_.	c #54508A",
":.	c #342F74",
"<.	c #505C8A",
"[.	c #313276",
"}.	c #3C4180",
"|.	c #464782",
"1.	c #464168",
"2.	c #393A6E",
"3.	c #2D3978",
"4.	c #24206A",
"5.	c #D8D8E5",
"6.	c #382E70",
"7.	c #1E1C68",
"8.	c #2D1E5C",
"9.	c #373677",
"0.	c #CEC5E2",
"a.	c #33266A",
"b.	c #342E73",
"c.	c #A19DBF",
"d.	c #FDFDFE",
"e.	c #332D73",
"f.	c #FEFEFF",
"g.	c #342A70",
"h.	c #27184D",
"i.	c #343176",
"j.	c #626095",
"k.	c #FEFEFE",
"l.	c #B6A7D3",
"m.	c #333076",
"                                                                                                  ",
"                                                                                                  ",
"                    . + @ # $ % %   % + & * = = * * - - ; @ @ > = , ' )                           ",
"                  $ - @ $ ! ~ ! { % ] ^ / ( _ _ # _ ( : @ @ < > @ - [ ' )                         ",
"                ^ } & | 1 2 3 4 ! { % % % 5 . 5 { % % 6 7 . 5 $ > & } [ 8 9                       ",
"              % } * 0 { 4 4 1 a { . . { ^ b c d e d d e d e d , * 0 + } c f g                     ",
"              - - @ | ! ! h { { . ^ [ e e c i j k k + & b , c e 8 8 e } = d '                     ",
"            _ } & l ] { % { . m c d ) n ! o ~ a 5 { % $ p ( 0 l & , q r 8 c s 9                   ",
"            } - @ > ] ] { % [ q t 1 3 3 o h u v + & & = * = * * * & & = e w q '                   ",
"          | } * + _ $ . / e [ h 2 ! x @ = = = * & & @ @ @ & & * = - } } } [ d c y                 ",
"          * - & m z 5 + q A a u @ b = k | $ ] $ p p # _ ( > m 0 l + & = } , [ [ A                 ",
"        % } * @ ^ % & q j 0 b & x { a a h { % ] | p # _ ( ^ / 0 l + + @ * b , c e d B             ",
"        / } * + z / d b & @ ] h ! ! ! 1 1 C h ] _ 0 + @ & & & & & & @ @ & * = b c ' 8 B           ",
"        } - & > $ = } + ] h ! ! ~ 4 D h k = } } E } } - - - - - } } } * & * b d [ [ e f           ",
"      { } - @ / = = u { { h ! ~ 4 h b F [ = G # | # _ ^ > / 0 l l @ @ l & & } H I ' 8 f 9         ",
"      ] } & & b ^ % { . J C ! 1 K = [ u 1 4 o ! { $ p ( > / 0 l l + 0 % + * b I L M H w 8         ",
"      > - - - # % { % + e n o o N = O 2 N o ~ h % $ # ( > / 0 l l + m h / * * I L M L M I t       ",
"      @ } = ] % % 0 @ I L P K 1 D k u K o 1 ! h ] | _ ( > / 0 l l @ / 1 x * & Q L M H R I S       ",
"      } @ ] { 5 8 H ) I L S 3 ~ o u u o ~ ! h % $ p _ ^ / m 0 l l G { 3 ] = * r H T H U I w h     ",
"    b + % % e e T L P M L R J ! ~ { $ ! ! h { ] | # # # # p | $ $ ] h { G * - c d [ V 8 R w B     ",
"  = 0 ] $ 5 M U ' L T S L H g a h h % h h { % ] | p | | | p p ( G m @ @ & = b b b , [ [ c W 9     ",
"+ + $ $ $ 5 ' H i L U e Q ' u { { { { { % % $ | # ^ m + & = b b + } * , , , , , , , , P ' T s     ",
"G _ p | $ 5 t L P Q 8 O z C h % % % ] | $ ^ | = [ [ [ c [ [ c = _ I P d [ [ [ , } * @ l & ) P     ",
"_ b m | $ % @ Q ) G . h . { ] p m & - * C R s b [ b = * @ @ @ ( p ) = F - , [ c c c c i A j y     ",
"j s + p | $ | | ~ { { | 0 & } } } = & X J P t b G | # # _ _ _ _ | $ ^ k k j b i ) P e ' 8 '       ",
"t c / # p $ ] % p l & - - & + v p $ ] $ % C a p . . . { ] $ p v + A t i [ c P e e e e P ' 8       ",
"y k # _ p p > @ * * + ( | % { { . a C C . ] v t [ e f w M M Q Q Y I I Z H Z H H Z Z I T s ' `     ",
"{ / 0 0 + @ @ l # $ % . C ~ C % y t d 8 w Q Y I Z Z Z Z Z Y Z Y Y Y Y Y Y Y Y Y Y I Z M 8 P n     ",
"% * * * @ > | $ { C a x i ' w Q I Z Z Z Z Y Y  . . .................................Y W P P 9     ",
"  + @ 0 _ # p % | P M I Z Z Z Y Y  . . .........+.+.+...@.@.+.+.+.+.+.+.+.+.+.+.+... .W ) ) 9     ",
"    u @ ^ ( p % ' Q H I Y  ...........q i #.@.$.+.%.@.&.y *.@.=.-.=.=.;.;.=.-.-.=.>. .,.) P n     ",
"    A - 0 ^ > # 8 M Z  .+.+.+.+.+.>.'.g N *.@.=.=.$.).A 3 !.).=.-.;.~.~.~.~.~.-.-.{. .P ].P B     ",
"    ^.} & ( - _ ' T Y +.$.%.%.=.$.$.@.!.b /.>.(.(.(.@.&.A _.@.=.;.~.~.~.~.~.~.:.-.>. .s t s 9     ",
"    <.d } _ p z P S Y +.[.[.[.=.[.[.[.@.).{.(.(.(.=.;.@.).>.=.;.~.~.~.~.~.~.~.-.-.{. .S ) s s     ",
"  h }.q } @ > # ) ,. .+.[.(.(.(.(.(.(.=.=.(.(.(.=.=.=.=.=.=.;.~.~.~.~.~.~.~.-.-.-.-. .R s P W     ",
"  h }.|.c - @ l i ,. .+.[.(.(.(.(.(.(.=.=.(.(.(.=.=.=.=.=.=.;.~.~.~.~.~.~.~.-.@.>.-.+.Y s i s     ",
"  h }.+.8 } O ] b ,.1.+.[.(.(.(.(.=.=.=.(.(.(.=.=.=.=.=.=.~.~.~.~.~.~.~.~.-.{._./.).>.2.) f P     ",
"    }.3.1.[ l t = W ..$.[.(.(.(.(.=.=.(.(.(.=.=.=.=.=.=.;.~.~.~.~.~.~.~.~.{.@.!.` &.4.@.^.w '     ",
"  { }.3. .c y T @ M  .[.(.(.(.(.=.=.(.(.(.=.=.=.=.=.=.;.~.~.~.~.~.~.~.-.-.:.>.{.5.a ^.).6.) t     ",
"    }.3.4.r 9 ' i M 7.[.(.(.(.=.=.=.(.(.(.=.=.=.=.=.=.~.~.~.~.~.~.~.~.-.~.@.).b q _.!.).8.i x     ",
"    *.3.$.9.y &.' B &.).$.(.=.=.=.(.(.=.=.=.=.=.=.;.~.~.~.~.~.~.~.~.-.-.).:.b 0.a.).).b.8.w j h   ",
"    ^.$.'.@.b y &.c.d.!.4.@.(.=.(.(.(.=.=.=.=.=.=.;.~.~.~.~.~.~.~.~.{.7.|.g ! |.).b.e.e.8.H i h   ",
"    A ).'.).!.a |.@.j f.A |.4.>.=.(.=.=.=.=.=.=.;.~.~.~.~.~.~.-.{.4.>.!.h f.&.).e.b.:.g.h.Z y `   ",
"    h [.$.).&.` |.).9.y 3 a !.}.).).{.(.=.=.=.;.~.~.~.~.i.i.>.4.{.&.5.N 1 ^.4.b.b.b.-.g.H W   y   ",
"      ^.>.@.q j {.(.@.9.A 3 3 { b j.{.4.).>.~.~.~.~.-.@.).).}.!.5.4 3 ! &.4.g.b.b.{.-.8.H 9   j   ",
"      A @.@.!.j >.[.;.@.>.c.k.K N d.g d &.|.{.~.~.-./.j.q l.! 3 3 3 5._.4.e.b.b.e.-.g.Z U     j   ",
"        }.).!.y >.=.=.(.=.).j.A 3 3 3 3 3 c.7.>.@.4.j.3 3 2 3 3 a !.9.).:.b.b.e.e.e.8.H s     9   ",
"        t 7.d y >.=.(.(.(.=.).@.&.j ! f.f.A _.*._._.!.3 3 o u d }.4.>.:.b.b.b.e.-.g.Z H h     t   ",
"          _.q 0.>.(.(.=.=.=.=.=.).>.|.^., 0.g ` { ` X A !.*.9.4.g.e.e.b.b.b.e.-.g.h.H )       )   ",
"          g !.j >.(.(.=.=.=.=.=.;.{.@.4.).{.9./././.m.).4.).>.e.=.b.b.b.b.e.-.e.8.H M         )   ",
"            g t >.[.=.=.=.=.=.=.=.~.~.~.~.-.-.-.-.-.{.-.-.-.-.-.:.b.b.b.e.-.e.a.H U         5.9   ",
"              A 4.~.;.=.=.=.=.=.~.~.~.~.~.~.~.~.~.-.-.-.-.-.-.:.b.b.b.e.-.e.8.H H 9       { ) h   ",
"              g 8 8.g.m.;.=.=.~.~.~.~.~.~.~.~.~.-.-.-.-.-.-.:.b.b.b.e.=.g.8.Z I P y y X y P n     ",
"              g B w a.a.:.;.;.~.~.~.~.~.~.~.~.-.-.-.-.-.-.:.b.b.b.:.e.a.h.H U B   n t 9 t `       ",
"              y A y 9 1.8.a.b.m.m.~.~.~.~.~.-.-.-.-.-.-.:.b.b.:.:.g.8.Z H W                       ",
"              y j h   h ' 8.8.a.g.e.:.m.~.~.~.~.~.~.~.~.:.b.g.a.8.Z H R t                         ",
"                `         B f h.h.8.a.a.g.e.e.b.b.e.e.g.a.8.h.Z H U )                             ",
"                                ) T  .Z h.h.h.h.h.h.h.Z H H R S 9                                 ",
"                                    B i ' f T M M T T S P 9 h                                     "};
